<svg xmlns="http://www.w3.org/2000/svg" viewBox="0 0 24 24" fill="none" stroke="currentColor" stroke-width="1.5" stroke-linecap="round" stroke-linejoin="round">
  <!-- Croissant crescent body -->
  <path d="M4 16c-1-4 2-9 6-10 2.5-.5 5 .5 6.5 2.5C18 11 18 15 16 17c-2 2-5 2.5-7.5 1L4 16z"/>
  <!-- Layered texture lines -->
  <path d="M8 8c1 2 1 5 0 7"/>
  <path d="M11 7c1 2.5 1 6 0 8"/>
  <!-- Right horn tip -->
  <path d="M16 17c1 1 3 2 4 1.5"/>
  <!-- Left horn tip -->
  <path d="M4 16c-1 1-2 3-1.5 4"/>
</svg>
